<svg xmlns="http://www.w3.org/2000/svg" width="48" height="48" viewBox="0 0 48 48">
  <g id="Group_819" data-name="Group 819" transform="translate(98 -1055)">
    <circle id="Ellipse_6" data-name="Ellipse 6" cx="24" cy="24" r="24" transform="translate(-98 1055)" fill="#25d366"/>
    <path id="whatsapp_1_" data-name="whatsapp (1)" d="M25.025,4.214A14.453,14.453,0,0,0,.371,14.369,14.292,14.292,0,0,0,2.3,21.554L.25,29,7.9,27a14.479,14.479,0,0,0,6.9,1.749h.006A14.426,14.426,0,0,0,29.25,14.381,14.247,14.247,0,0,0,25.025,4.214ZM14.81,26.324h0A12.03,12.03,0,0,1,8.7,24.659L8.259,24.4,3.717,25.586l1.212-4.408-.285-.452a11.94,11.94,0,0,1,10.172-18.3,11.949,11.949,0,1,1,0,23.9Zm6.583-8.946c-.361-.18-2.135-1.048-2.465-1.168s-.571-.179-.812.18-.932,1.168-1.143,1.408-.421.27-.782.09a9.865,9.865,0,0,1-2.9-1.782,10.839,10.839,0,0,1-2.007-2.487c-.21-.36,0-.535.158-.733a10.159,10.159,0,0,0,.9-1.228.658.658,0,0,0-.03-.629c-.09-.18-.812-1.947-1.112-2.666-.293-.7-.59-.605-.812-.616s-.451-.013-.691-.013a1.328,1.328,0,0,0-.962.449,4.019,4.019,0,0,0-1.263,3,6.968,6.968,0,0,0,1.473,3.714,16.052,16.052,0,0,0,6.163,5.422,20.715,20.715,0,0,0,2.057.757,4.969,4.969,0,0,0,2.272.142,3.717,3.717,0,0,0,2.435-1.707,2.987,2.987,0,0,0,.21-1.708c-.09-.15-.331-.239-.691-.419Zm0,0" transform="translate(-88.25 1064)" fill="#fff" fill-rule="evenodd"/>
  </g>
</svg>
